<svg xmlns="http://www.w3.org/2000/svg" version="1.1" viewBox="-5.0 -10.0 110.0 135.0">
 <path d="m50 23.242c-14.754 0-26.758 12.004-26.758 26.758s12.004 26.758 26.758 26.758 26.758-12.004 26.758-26.758-12.004-26.758-26.758-26.758zm0 47.219c-11.285 0-20.461-9.1797-20.461-20.461 0-11.285 9.1797-20.461 20.461-20.461s20.461 9.1797 20.461 20.461-9.1797 20.461-20.461 20.461zm26.758-66.109h-53.516c-9.5469 0-17.312 7.7656-17.312 17.312l-0.003907 56.668c0 9.5469 7.7656 17.312 17.312 17.312h53.516c9.5469 0 17.312-7.7656 17.312-17.312l0.007813-56.664c0-9.5469-7.7695-17.316-17.316-17.316zm11.02 73.98c0 6.0742-4.9453 11.02-11.02 11.02h-53.516c-6.0742 0-11.02-4.9453-11.02-11.02v-56.664c0-6.0742 4.9414-11.02 11.02-11.02h53.516c6.0742 0 11.02 4.9414 11.02 11.02zm-7.6758-60c0.87891 0.88281 1.3867 2.0938 1.3867 3.3359 0 1.2422-0.50391 2.4531-1.3867 3.3359-0.88281 0.88281-2.0938 1.3867-3.3359 1.3867-0.31641 0-0.62891-0.03125-0.92969-0.09375-0.30078-0.0625-0.59766-0.15625-0.88281-0.26953-0.28125-0.125-0.56641-0.26562-0.81641-0.44141-0.25391-0.17188-0.50391-0.36328-0.70703-0.58203-0.88281-0.88281-1.3867-2.0938-1.3867-3.3359 0-0.31641 0.03125-0.61328 0.09375-0.92969 0.046875-0.30078 0.14062-0.59766 0.26562-0.88281 0.10938-0.28125 0.25391-0.55078 0.42578-0.82031 0.17188-0.25 0.375-0.50391 0.59766-0.70703 1.7461-1.7578 4.9102-1.7578 6.6758 0.003906z"/>

</svg>