<svg xmlns="http://www.w3.org/2000/svg" version="1.1" viewBox="-5.0 -10.0 110.0 135.0">
 <path d="m54.504 9.2617 11.016 23.449 26.012 3.2891c1.8594 0.40234 3.2188 1.5078 3.8164 3.3477h0.003906c0.59766 1.8438 0.085938 3.8359-1.3242 5.1602l-18.906 17.727 4.8711 25.457c0.57812 3.0156-1.6445 5.7188-4.5703 5.9062-0.92578 0.058594-1.8555-0.14453-2.707-0.61328l-22.707-12.504-22.707 12.504c-3.668 2.0195-8.0742-1.1406-7.2812-5.2891l4.8711-25.457-18.902-17.738c-3.5469-3.3281-0.48828-8.5508 2.793-8.5508v-0.007813l25.715-3.2344 11.016-23.445c1.793-3.8281 7.1992-3.8281 8.9922 0zm7.25 26.676-11.645-24.727-0.26953 0.074218-11.496 24.473c-0.30469 0.8125-1.0391 1.4336-1.9609 1.5469l-27.023 3.3984v-0.007813l-0.089844 0.32031 19.801 18.57c0.62109 0.54297 0.94531 1.3867 0.77734 2.2539l-5.1172 26.855 0.26172 0.085938 23.836-13.121c0.69922-0.39453 1.5781-0.42578 2.332-0.015625l23.961 13.172 0.16406-0.22656-5.1211-26.75c-0.14844-0.77734 0.09375-1.6094 0.71094-2.1914l19.934-18.715c0.003906-0.019532 0-0.058594-0.015625-0.10938h0.003906l-0.14453-0.11719-27.023-3.4023v-0.007813c-0.78906-0.097656-1.5117-0.58594-1.875-1.3594z" fill-rule="evenodd"/>
</svg>