<svg xmlns="http://www.w3.org/2000/svg" xmlns:xlink="http://www.w3.org/1999/xlink" viewBox="-5.0 -10.0 110.0 135.0" version="1.1" x="0px" y="0px"><title>Video</title><desc>Created with Sketch.</desc><g stroke="none" stroke-width="1" fill="none" fill-rule="evenodd"><path d="M73.4265651,20.4411765 L73.4479886,20.4411765 L26.5520114,20.4411765 C18.198721,20.4411765 11.4270412,27.2277496 11.4270412,35.5994118 L11.4270412,65.4220588 C11.4270412,73.793721 18.198721,80.5802941 26.5520114,80.5802941 L73.4265651,80.5802941 C81.7798555,80.5802941 88.5515353,73.793721 88.5515353,65.4220588 L88.5515353,35.5994118 C88.5515353,27.2277496 81.7798555,20.4411765 73.4265651,20.4411765 Z M73.4479886,14 L73.4265651,14 C85.3245315,13.9999765 94.9763695,23.6538306 95,35.5779412 L95,65.4005882 C94.9881906,77.3247081 85.3459408,86.9881646 73.4479886,87 L26.5520114,87 C14.6624089,86.9881906 5.02360808,77.3377931 5,65.4220588 L5,35.5994118 C5.01180939,23.6752919 14.6540592,14.0118354 26.5520114,14 L73.4479886,14 Z M43.4278311,40.3938483 L43.4278311,61.6358691 L60.568714,51.0148587 L43.4278311,40.3938483 Z M43.4278311,34.021242 L43.4278311,34 C44.6333708,34.0025424 45.8138917,34.3411425 46.8345816,34.977133 L63.9754645,45.5981434 C65.8568116,46.7622432 67,48.8055932 67,51.0042377 C67,53.2028822 65.8568116,55.2462322 63.9754645,56.410332 L46.8345816,67.0313424 C44.8543811,68.2583409 42.3587375,68.3241324 40.3155622,67.2032003 C38.2723868,66.0822682 37.0031067,63.9509547 37,61.6358691 L37,40.3938483 C37,36.874355 39.877838,34.021242 43.4278311,34.021242 Z" fill="#000000"/></g><text x="0.0" y="117.5" font-size="5.0" font-weight="bold" font-family="Arbeit Regular, Helvetica, Arial-Unicode, Arial, Sans-serif" fill="#000000">Created by El Maestro Design</text><text x="0.0" y="122.5" font-size="5.0" font-weight="bold" font-family="Arbeit Regular, Helvetica, Arial-Unicode, Arial, Sans-serif" fill="#000000">from Noun Project</text></svg>